<svg width="690" height="590" viewBox="0 0 690 590" fill="none" xmlns="http://www.w3.org/2000/svg">
<path opacity="0.9" d="M125.647 430.549L324.865 349.99C338.043 344.662 352.752 344.668 365.924 350.019L564.373 430.561C578.574 436.322 578.535 456.63 564.311 462.341L365.732 542.061C352.673 547.303 338.122 547.315 325.057 542.084L125.709 462.346C111.458 456.647 111.424 436.305 125.647 430.549Z" fill="#001E2B"/>
<path d="M125.647 427.549L324.865 346.99C338.043 341.662 352.752 341.668 365.924 347.019L564.373 427.561C578.574 433.322 578.535 453.63 564.311 459.341L365.732 539.061C352.673 544.303 338.122 544.315 325.057 539.084L125.709 459.346C111.458 453.647 111.424 433.305 125.647 427.549Z" fill="#006CFA"/>
<path d="M256.116 468.58C256.188 470.524 257.88 472.216 260.562 472.216C262.938 472.216 264.63 470.848 264.63 468.688C264.63 466.78 263.514 465.664 261.57 464.962L259.932 464.368C258.69 463.918 258.096 463.378 258.096 462.298C258.096 461.236 259.05 460.57 260.274 460.57C261.318 460.57 262.362 461.128 262.686 462.46H264.342C264.18 460.786 262.902 459.004 260.31 459.004C258.078 459.004 256.422 460.264 256.422 462.352C256.44 464.152 257.394 465.25 259.374 465.952L261.138 466.6C262.326 467.032 262.956 467.734 262.956 468.742C262.956 469.93 261.876 470.65 260.544 470.65C259.338 470.65 257.934 470.002 257.79 468.58H256.116ZM266.693 468.526C266.693 470.758 268.025 472.18 270.005 472.18C271.139 472.18 272.183 471.658 272.777 470.614V472H274.325V463H272.777V467.464C272.777 469.534 271.679 470.758 270.275 470.758C269.033 470.758 268.241 469.804 268.241 468.292V463H266.693V468.526ZM277.243 475.762H278.791V470.614C279.385 471.478 280.609 472.18 281.959 472.18C284.461 472.18 286.369 470.074 286.369 467.5C286.369 464.926 284.461 462.82 281.959 462.82C280.609 462.82 279.385 463.522 278.791 464.386V463H277.243V475.762ZM284.785 467.5C284.785 469.318 283.543 470.758 281.725 470.758C279.907 470.758 278.665 469.318 278.665 467.5C278.665 465.682 279.907 464.242 281.725 464.242C283.543 464.242 284.785 465.682 284.785 467.5ZM288.599 475.762H290.147V470.614C290.741 471.478 291.965 472.18 293.315 472.18C295.817 472.18 297.725 470.074 297.725 467.5C297.725 464.926 295.817 462.82 293.315 462.82C291.965 462.82 290.741 463.522 290.147 464.386V463H288.599V475.762ZM296.141 467.5C296.141 469.318 294.899 470.758 293.081 470.758C291.263 470.758 290.021 469.318 290.021 467.5C290.021 465.682 291.263 464.242 293.081 464.242C294.899 464.242 296.141 465.682 296.141 467.5ZM308.648 467.5C308.648 464.908 306.65 462.82 303.95 462.82C301.232 462.82 299.234 464.908 299.234 467.5C299.234 470.092 301.232 472.18 303.95 472.18C306.65 472.18 308.648 470.092 308.648 467.5ZM300.818 467.5C300.818 465.7 302.078 464.26 303.95 464.26C305.822 464.26 307.064 465.7 307.064 467.5C307.064 469.3 305.822 470.74 303.95 470.74C302.078 470.74 300.818 469.3 300.818 467.5ZM310.87 472H312.418V467.536C312.418 465.43 313.66 464.44 314.794 464.44C315.1 464.44 315.352 464.476 315.64 464.584V462.982C315.388 462.928 315.172 462.91 314.938 462.91C313.894 462.91 312.778 463.594 312.418 464.746V463H310.87V472ZM322.34 471.874V470.488C322.052 470.596 321.62 470.668 321.242 470.668C320.27 470.668 319.748 470.29 319.748 469.138V464.422H322.34V463H319.748V460.498H318.2V463H316.292V464.422H318.2V469.336C318.2 471.208 319.388 472.09 320.954 472.09C321.512 472.09 321.962 472 322.34 471.874ZM327.957 467.5C327.957 470.074 329.847 472.18 332.367 472.18C333.717 472.18 334.941 471.478 335.535 470.614V472H337.083V463H335.535V464.386C334.941 463.522 333.717 462.82 332.367 462.82C329.847 462.82 327.957 464.926 327.957 467.5ZM335.661 467.5C335.661 469.318 334.419 470.758 332.601 470.758C330.783 470.758 329.523 469.318 329.523 467.5C329.523 465.682 330.783 464.242 332.601 464.242C334.419 464.242 335.661 465.682 335.661 467.5ZM339.997 472H341.545V467.536C341.545 465.43 342.697 464.242 344.155 464.242C345.415 464.242 346.279 465.178 346.279 466.69V472H347.809V466.456C347.809 464.224 346.423 462.82 344.407 462.82C343.237 462.82 342.157 463.324 341.545 464.386V463H339.997V472ZM349.895 467.5C349.895 470.074 351.785 472.18 354.305 472.18C355.655 472.18 356.879 471.478 357.473 470.614V472H359.021V458.5H357.473V464.386C356.879 463.522 355.655 462.82 354.305 462.82C351.785 462.82 349.895 464.926 349.895 467.5ZM357.599 467.5C357.599 469.318 356.357 470.758 354.539 470.758C352.721 470.758 351.461 469.318 351.461 467.5C351.461 465.682 352.721 464.242 354.539 464.242C356.357 464.242 357.599 465.682 357.599 467.5ZM365.592 468.58C365.664 470.524 367.356 472.216 370.038 472.216C372.414 472.216 374.106 470.848 374.106 468.688C374.106 466.78 372.99 465.664 371.046 464.962L369.408 464.368C368.166 463.918 367.572 463.378 367.572 462.298C367.572 461.236 368.526 460.57 369.75 460.57C370.794 460.57 371.838 461.128 372.162 462.46H373.818C373.656 460.786 372.378 459.004 369.786 459.004C367.554 459.004 365.898 460.264 365.898 462.352C365.916 464.152 366.87 465.25 368.85 465.952L370.614 466.6C371.802 467.032 372.432 467.734 372.432 468.742C372.432 469.93 371.352 470.65 370.02 470.65C368.814 470.65 367.41 470.002 367.266 468.58H365.592ZM384.43 469.264H382.846C382.306 470.344 381.352 470.776 380.236 470.776C378.616 470.776 377.302 469.552 377.248 467.914H384.574C384.79 465.124 383.08 462.82 380.254 462.82C377.446 462.82 375.682 464.872 375.682 467.5C375.682 470.182 377.59 472.18 380.218 472.18C382.504 472.18 383.98 470.848 384.43 469.264ZM380.2 464.188C381.532 464.188 382.648 465.016 382.936 466.69H377.32C377.626 464.908 378.904 464.188 380.2 464.188ZM386.808 472H388.356V467.536C388.356 465.43 389.598 464.44 390.732 464.44C391.038 464.44 391.29 464.476 391.578 464.584V462.982C391.326 462.928 391.11 462.91 390.876 462.91C389.832 462.91 388.716 463.594 388.356 464.746V463H386.808V472ZM396.207 472H397.503L401.661 463H399.933L396.855 469.804L393.777 463H392.049L396.207 472ZM405.098 459.49C405.098 458.896 404.63 458.392 404.018 458.392C403.406 458.392 402.902 458.896 402.902 459.49C402.902 460.102 403.406 460.588 404.018 460.588C404.63 460.588 405.098 460.102 405.098 459.49ZM403.226 472H404.774V463H403.226V472ZM416.24 468.832H414.584C414.188 469.966 413.108 470.758 411.704 470.758C409.832 470.758 408.572 469.318 408.572 467.5C408.572 465.682 409.832 464.242 411.704 464.242C413.108 464.242 414.188 465.034 414.584 466.168H416.24C415.736 464.224 413.972 462.82 411.704 462.82C408.968 462.82 407.006 464.926 407.006 467.5C407.006 470.074 408.968 472.18 411.704 472.18C413.972 472.18 415.736 470.776 416.24 468.832ZM426.336 469.264H424.752C424.212 470.344 423.258 470.776 422.142 470.776C420.522 470.776 419.208 469.552 419.154 467.914H426.48C426.696 465.124 424.986 462.82 422.16 462.82C419.352 462.82 417.588 464.872 417.588 467.5C417.588 470.182 419.496 472.18 422.124 472.18C424.41 472.18 425.886 470.848 426.336 469.264ZM422.106 464.188C423.438 464.188 424.554 465.016 424.842 466.69H419.226C419.532 464.908 420.81 464.188 422.106 464.188ZM434.924 469.57C434.924 468.22 434.114 467.284 432.62 466.906L431.18 466.528C430.226 466.276 429.812 465.898 429.812 465.232C429.812 464.548 430.496 464.116 431.36 464.116C432.206 464.116 432.854 464.602 433.088 465.394H434.636C434.474 463.954 433.286 462.82 431.36 462.82C429.542 462.82 428.246 463.756 428.246 465.25C428.246 466.528 429.02 467.5 430.568 467.896L431.864 468.238C432.926 468.526 433.358 468.958 433.358 469.678C433.358 470.47 432.602 470.866 431.63 470.866C430.694 470.866 429.758 470.488 429.542 469.39H427.958C428.084 471.208 429.686 472.18 431.612 472.18C433.484 472.18 434.924 471.352 434.924 469.57Z" fill="white"/>
<path opacity="0.1" d="M125.647 303.549L324.865 222.99C338.043 217.662 352.752 217.668 365.924 223.019L564.373 303.561C578.574 309.322 578.535 329.63 564.311 335.341L365.732 415.061C352.673 420.303 338.122 420.315 325.057 415.084L125.709 335.346C111.458 329.647 111.424 309.305 125.647 303.549Z" fill="#001E2B"/>
<path opacity="0.9" d="M125.647 279.549L324.865 198.99C338.043 193.662 352.752 193.668 365.924 199.019L564.373 279.561C578.574 285.322 578.535 305.63 564.311 311.341L365.732 391.061C352.673 396.303 338.122 396.315 325.057 391.084L125.709 311.346C111.458 305.647 111.424 285.305 125.647 279.549Z" fill="#001E2B"/>
<path d="M125.647 276.549L324.865 195.99C338.043 190.662 352.752 190.668 365.924 196.019L564.373 276.561C578.574 282.322 578.535 302.63 564.311 308.341L365.732 388.061C352.673 393.303 338.122 393.315 325.057 388.084L125.709 308.346C111.458 302.647 111.424 282.305 125.647 276.549Z" fill="#00ED64"/>
<path d="M223.963 321H227.635C231.559 321 234.439 318.264 234.439 314.61C234.439 310.956 231.559 308.22 227.635 308.22H223.963V321ZM225.637 319.434V309.786H227.635C230.713 309.786 232.747 311.838 232.747 314.61C232.747 317.382 230.713 319.434 227.635 319.434H225.637ZM236 316.5C236 319.074 237.89 321.18 240.41 321.18C241.76 321.18 242.984 320.478 243.578 319.614V321H245.126V312H243.578V313.386C242.984 312.522 241.76 311.82 240.41 311.82C237.89 311.82 236 313.926 236 316.5ZM243.704 316.5C243.704 318.318 242.462 319.758 240.644 319.758C238.826 319.758 237.566 318.318 237.566 316.5C237.566 314.682 238.826 313.242 240.644 313.242C242.462 313.242 243.704 314.682 243.704 316.5ZM252.918 320.874V319.488C252.63 319.596 252.198 319.668 251.82 319.668C250.848 319.668 250.326 319.29 250.326 318.138V313.422H252.918V312H250.326V309.498H248.778V312H246.87V313.422H248.778V318.336C248.778 320.208 249.966 321.09 251.532 321.09C252.09 321.09 252.54 321 252.918 320.874ZM254.07 316.5C254.07 319.074 255.96 321.18 258.48 321.18C259.83 321.18 261.054 320.478 261.648 319.614V321H263.196V312H261.648V313.386C261.054 312.522 259.83 311.82 258.48 311.82C255.96 311.82 254.07 313.926 254.07 316.5ZM261.774 316.5C261.774 318.318 260.532 319.758 258.714 319.758C256.896 319.758 255.636 318.318 255.636 316.5C255.636 314.682 256.896 313.242 258.714 313.242C260.532 313.242 261.774 314.682 261.774 316.5ZM269.75 316.5C269.75 319.074 271.64 321.18 274.16 321.18C275.51 321.18 276.734 320.478 277.328 319.614V321H278.876V312H277.328V313.386C276.734 312.522 275.51 311.82 274.16 311.82C271.64 311.82 269.75 313.926 269.75 316.5ZM277.454 316.5C277.454 318.318 276.212 319.758 274.394 319.758C272.576 319.758 271.316 318.318 271.316 316.5C271.316 314.682 272.576 313.242 274.394 313.242C276.212 313.242 277.454 314.682 277.454 316.5ZM281.79 321H283.338V316.536C283.338 314.43 284.49 313.242 285.948 313.242C287.208 313.242 288.072 314.178 288.072 315.69V321H289.602V315.456C289.602 313.224 288.216 311.82 286.2 311.82C285.03 311.82 283.95 312.324 283.338 313.386V312H281.79V321ZM291.688 316.5C291.688 319.074 293.578 321.18 296.098 321.18C297.448 321.18 298.672 320.478 299.266 319.614V321H300.814V307.5H299.266V313.386C298.672 312.522 297.448 311.82 296.098 311.82C293.578 311.82 291.688 313.926 291.688 316.5ZM299.392 316.5C299.392 318.318 298.15 319.758 296.332 319.758C294.514 319.758 293.254 318.318 293.254 316.5C293.254 314.682 294.514 313.242 296.332 313.242C298.15 313.242 299.392 314.682 299.392 316.5ZM308.303 321H312.875C315.467 321 317.159 319.398 317.159 317.274C317.159 315.564 316.187 314.664 314.945 314.214C315.755 313.71 316.313 312.864 316.313 311.604C316.313 309.804 314.873 308.22 312.497 308.22H308.303V321ZM309.977 313.71V309.732H312.497C313.865 309.732 314.675 310.65 314.675 311.73C314.675 312.864 313.865 313.71 312.497 313.71H309.977ZM309.977 319.488V315.15H312.965C314.657 315.15 315.521 316.086 315.521 317.328C315.521 318.588 314.657 319.488 312.947 319.488H309.977ZM319.246 317.526C319.246 319.758 320.578 321.18 322.558 321.18C323.692 321.18 324.736 320.658 325.33 319.614V321H326.878V312H325.33V316.464C325.33 318.534 324.232 319.758 322.828 319.758C321.586 319.758 320.794 318.804 320.794 317.292V312H319.246V317.526ZM336.006 318.57C336.006 317.22 335.196 316.284 333.702 315.906L332.262 315.528C331.308 315.276 330.894 314.898 330.894 314.232C330.894 313.548 331.578 313.116 332.442 313.116C333.288 313.116 333.936 313.602 334.17 314.394H335.718C335.556 312.954 334.368 311.82 332.442 311.82C330.624 311.82 329.328 312.756 329.328 314.25C329.328 315.528 330.102 316.5 331.65 316.896L332.946 317.238C334.008 317.526 334.44 317.958 334.44 318.678C334.44 319.47 333.684 319.866 332.712 319.866C331.776 319.866 330.84 319.488 330.624 318.39H329.04C329.166 320.208 330.768 321.18 332.694 321.18C334.566 321.18 336.006 320.352 336.006 318.57ZM340.07 308.49C340.07 307.896 339.602 307.392 338.99 307.392C338.378 307.392 337.874 307.896 337.874 308.49C337.874 309.102 338.378 309.588 338.99 309.588C339.602 309.588 340.07 309.102 340.07 308.49ZM338.198 321H339.746V312H338.198V321ZM342.681 321H344.229V316.536C344.229 314.43 345.381 313.242 346.839 313.242C348.099 313.242 348.963 314.178 348.963 315.69V321H350.493V315.456C350.493 313.224 349.107 311.82 347.091 311.82C345.921 311.82 344.841 312.324 344.229 313.386V312H342.681V321ZM361.326 318.264H359.742C359.202 319.344 358.248 319.776 357.132 319.776C355.512 319.776 354.198 318.552 354.144 316.914H361.47C361.686 314.124 359.976 311.82 357.15 311.82C354.342 311.82 352.578 313.872 352.578 316.5C352.578 319.182 354.486 321.18 357.114 321.18C359.4 321.18 360.876 319.848 361.326 318.264ZM357.096 313.188C358.428 313.188 359.544 314.016 359.832 315.69H354.216C354.522 313.908 355.8 313.188 357.096 313.188ZM369.914 318.57C369.914 317.22 369.104 316.284 367.61 315.906L366.17 315.528C365.216 315.276 364.802 314.898 364.802 314.232C364.802 313.548 365.486 313.116 366.35 313.116C367.196 313.116 367.844 313.602 368.078 314.394H369.626C369.464 312.954 368.276 311.82 366.35 311.82C364.532 311.82 363.236 312.756 363.236 314.25C363.236 315.528 364.01 316.5 365.558 316.896L366.854 317.238C367.916 317.526 368.348 317.958 368.348 318.678C368.348 319.47 367.592 319.866 366.62 319.866C365.684 319.866 364.748 319.488 364.532 318.39H362.948C363.074 320.208 364.676 321.18 366.602 321.18C368.474 321.18 369.914 320.352 369.914 318.57ZM378.316 318.57C378.316 317.22 377.506 316.284 376.012 315.906L374.572 315.528C373.618 315.276 373.204 314.898 373.204 314.232C373.204 313.548 373.888 313.116 374.752 313.116C375.598 313.116 376.246 313.602 376.48 314.394H378.028C377.866 312.954 376.678 311.82 374.752 311.82C372.934 311.82 371.638 312.756 371.638 314.25C371.638 315.528 372.412 316.5 373.96 316.896L375.256 317.238C376.318 317.526 376.75 317.958 376.75 318.678C376.75 319.47 375.994 319.866 375.022 319.866C374.086 319.866 373.15 319.488 372.934 318.39H371.35C371.476 320.208 373.078 321.18 375.004 321.18C376.876 321.18 378.316 320.352 378.316 318.57ZM388.991 308.22H385.085V321H386.759V316.338H388.991C391.655 316.338 393.383 314.592 393.383 312.288C393.383 309.984 391.655 308.22 388.991 308.22ZM388.991 314.79H386.759V309.786H388.991C390.755 309.786 391.727 310.866 391.727 312.288C391.727 313.71 390.755 314.79 388.991 314.79ZM395.274 321H396.822V316.536C396.822 314.43 398.064 313.44 399.198 313.44C399.504 313.44 399.756 313.476 400.044 313.584V311.982C399.792 311.928 399.576 311.91 399.342 311.91C398.298 311.91 397.182 312.594 396.822 313.746V312H395.274V321ZM410.244 316.5C410.244 313.908 408.246 311.82 405.546 311.82C402.828 311.82 400.83 313.908 400.83 316.5C400.83 319.092 402.828 321.18 405.546 321.18C408.246 321.18 410.244 319.092 410.244 316.5ZM402.414 316.5C402.414 314.7 403.674 313.26 405.546 313.26C407.418 313.26 408.66 314.7 408.66 316.5C408.66 318.3 407.418 319.74 405.546 319.74C403.674 319.74 402.414 318.3 402.414 316.5ZM417.186 320.874V319.488C416.898 319.596 416.466 319.668 416.088 319.668C415.116 319.668 414.594 319.29 414.594 318.138V313.422H417.186V312H414.594V309.498H413.046V312H411.138V313.422H413.046V318.336C413.046 320.208 414.234 321.09 415.8 321.09C416.358 321.09 416.808 321 417.186 320.874ZM427.086 318.264H425.502C424.962 319.344 424.008 319.776 422.892 319.776C421.272 319.776 419.958 318.552 419.904 316.914H427.23C427.446 314.124 425.736 311.82 422.91 311.82C420.102 311.82 418.338 313.872 418.338 316.5C418.338 319.182 420.246 321.18 422.874 321.18C425.16 321.18 426.636 319.848 427.086 318.264ZM422.856 313.188C424.188 313.188 425.304 314.016 425.592 315.69H419.976C420.282 313.908 421.56 313.188 422.856 313.188ZM437.996 317.832H436.34C435.944 318.966 434.864 319.758 433.46 319.758C431.588 319.758 430.328 318.318 430.328 316.5C430.328 314.682 431.588 313.242 433.46 313.242C434.864 313.242 435.944 314.034 436.34 315.168H437.996C437.492 313.224 435.728 311.82 433.46 311.82C430.724 311.82 428.762 313.926 428.762 316.5C428.762 319.074 430.724 321.18 433.46 321.18C435.728 321.18 437.492 319.776 437.996 317.832ZM444.836 320.874V319.488C444.548 319.596 444.116 319.668 443.738 319.668C442.766 319.668 442.244 319.29 442.244 318.138V313.422H444.836V312H442.244V309.498H440.696V312H438.788V313.422H440.696V318.336C440.696 320.208 441.884 321.09 443.45 321.09C444.008 321.09 444.458 321 444.836 320.874ZM448.685 308.49C448.685 307.896 448.217 307.392 447.605 307.392C446.993 307.392 446.489 307.896 446.489 308.49C446.489 309.102 446.993 309.588 447.605 309.588C448.217 309.588 448.685 309.102 448.685 308.49ZM446.813 321H448.361V312H446.813V321ZM459.99 316.5C459.99 313.908 457.992 311.82 455.292 311.82C452.574 311.82 450.576 313.908 450.576 316.5C450.576 319.092 452.574 321.18 455.292 321.18C457.992 321.18 459.99 319.092 459.99 316.5ZM452.16 316.5C452.16 314.7 453.42 313.26 455.292 313.26C457.164 313.26 458.406 314.7 458.406 316.5C458.406 318.3 457.164 319.74 455.292 319.74C453.42 319.74 452.16 318.3 452.16 316.5ZM462.212 321H463.76V316.536C463.76 314.43 464.912 313.242 466.37 313.242C467.63 313.242 468.494 314.178 468.494 315.69V321H470.024V315.456C470.024 313.224 468.638 311.82 466.622 311.82C465.452 311.82 464.372 312.324 463.76 313.386V312H462.212V321Z" fill="#001E2B"/>
<path opacity="0.9" d="M4.05051 345.706L79.8396 315.496C84.8529 313.498 90.4489 313.501 95.46 315.507L170.957 345.71C176.359 347.871 176.344 355.486 170.933 357.628L95.387 387.523C90.4188 389.489 84.883 389.493 79.9127 387.531L4.07415 357.63C-1.34764 355.493 -1.36054 347.864 4.05051 345.706Z" fill="#001E2B"/>
<path d="M4.05051 342.706L79.8396 312.496C84.8529 310.498 90.4489 310.501 95.46 312.507L170.957 342.71C176.359 344.871 176.344 352.486 170.933 354.628L95.387 384.523C90.4188 386.489 84.883 386.493 79.9127 384.531L4.07415 354.63C-1.34764 352.493 -1.36054 344.864 4.05051 342.706Z" fill="#00D2FF"/>
<path d="M61.0018 354H62.2498L63.4328 351.309H67.7358L68.9188 354H70.1798L66.0848 344.77H65.0838L61.0018 354ZM63.9008 350.217L65.5778 346.408L67.2548 350.217H63.9008ZM71.0772 351.491C71.0772 353.103 72.0392 354.13 73.4692 354.13C74.2882 354.13 75.0422 353.753 75.4712 352.999V354H76.5892V347.5H75.4712V350.724C75.4712 352.219 74.6782 353.103 73.6642 353.103C72.7672 353.103 72.1952 352.414 72.1952 351.322V347.5H71.0772V351.491ZM78.1896 350.75C78.1896 352.609 79.5546 354.13 81.3746 354.13C82.3496 354.13 83.2336 353.623 83.6626 352.999V354H84.7806V344.25H83.6626V348.501C83.2336 347.877 82.3496 347.37 81.3746 347.37C79.5546 347.37 78.1896 348.891 78.1896 350.75ZM83.7536 350.75C83.7536 352.063 82.8566 353.103 81.5436 353.103C80.2306 353.103 79.3206 352.063 79.3206 350.75C79.3206 349.437 80.2306 348.397 81.5436 348.397C82.8566 348.397 83.7536 349.437 83.7536 350.75ZM88.237 344.965C88.237 344.536 87.899 344.172 87.457 344.172C87.015 344.172 86.651 344.536 86.651 344.965C86.651 345.407 87.015 345.758 87.457 345.758C87.899 345.758 88.237 345.407 88.237 344.965ZM86.885 354H88.003V347.5H86.885V354ZM93.6453 353.909V352.908C93.4373 352.986 93.1253 353.038 92.8523 353.038C92.1503 353.038 91.7733 352.765 91.7733 351.933V348.527H93.6453V347.5H91.7733V345.693H90.6553V347.5H89.2773V348.527H90.6553V352.076C90.6553 353.428 91.5133 354.065 92.6443 354.065C93.0473 354.065 93.3723 354 93.6453 353.909ZM96.4255 344.965C96.4255 344.536 96.0875 344.172 95.6455 344.172C95.2035 344.172 94.8395 344.536 94.8395 344.965C94.8395 345.407 95.2035 345.758 95.6455 345.758C96.0875 345.758 96.4255 345.407 96.4255 344.965ZM95.0735 354H96.1915V347.5H95.0735V354ZM98.3108 354H99.4288V350.776C99.4288 349.255 100.261 348.397 101.314 348.397C102.224 348.397 102.848 349.073 102.848 350.165V354H103.953V349.996C103.953 348.384 102.952 347.37 101.496 347.37C100.651 347.37 99.8708 347.734 99.4288 348.501V347.5H98.3108V354ZM105.68 354.598C105.875 355.911 107.084 356.847 108.826 356.847C110.594 356.847 112.024 355.768 112.024 353.597V347.5H110.906V348.501C110.464 347.851 109.606 347.37 108.644 347.37C106.837 347.37 105.459 348.826 105.459 350.672C105.459 352.531 106.837 353.987 108.644 353.987C109.606 353.987 110.464 353.493 110.906 352.843V353.61C110.906 355.079 110.022 355.859 108.852 355.859C107.799 355.859 107.071 355.456 106.772 354.598H105.68ZM110.997 350.672C110.997 351.985 110.1 352.947 108.8 352.947C107.5 352.947 106.603 351.985 106.603 350.672C106.603 349.372 107.5 348.397 108.8 348.397C110.1 348.397 110.997 349.372 110.997 350.672Z" fill="#001E2B"/>
<path opacity="0.9" d="M131.051 396.706L206.84 366.496C211.853 364.498 217.449 364.501 222.46 366.507L297.957 396.71C303.359 398.871 303.344 406.486 297.933 408.628L222.387 438.523C217.419 440.489 211.883 440.493 206.913 438.531L131.074 408.63C125.652 406.493 125.639 398.864 131.051 396.706Z" fill="#001E2B"/>
<path opacity="0.1" d="M131.051 412.706L206.84 382.496C211.853 380.498 217.449 380.501 222.46 382.507L297.957 412.71C303.359 414.871 303.344 422.486 297.933 424.628L222.387 454.523C217.419 456.489 211.883 456.493 206.913 454.531L131.074 424.63C125.652 422.493 125.639 414.864 131.051 412.706Z" fill="#001E2B"/>
<path d="M131.051 393.706L206.84 363.496C211.853 361.498 217.449 361.501 222.46 363.507L297.957 393.71C303.359 395.871 303.344 403.486 297.933 405.628L222.387 435.523C217.419 437.489 211.883 437.493 206.913 435.531L131.074 405.63C125.652 403.493 125.639 395.864 131.051 393.706Z" fill="#00D2FF"/>
<path d="M182.047 405H187.429V403.856H183.256V400.853H186.649V399.709H183.256V396.914H187.429V395.77H182.047V405ZM188.975 405H190.093V401.776C190.093 400.255 190.925 399.397 191.978 399.397C192.888 399.397 193.512 400.073 193.512 401.165V405H194.617V400.996C194.617 399.384 193.616 398.37 192.16 398.37C191.315 398.37 190.535 398.734 190.093 399.501V398.5H188.975V405ZM202.792 402.712H201.596C201.31 403.531 200.53 404.103 199.516 404.103C198.164 404.103 197.254 403.063 197.254 401.75C197.254 400.437 198.164 399.397 199.516 399.397C200.53 399.397 201.31 399.969 201.596 400.788H202.792C202.428 399.384 201.154 398.37 199.516 398.37C197.54 398.37 196.123 399.891 196.123 401.75C196.123 403.609 197.54 405.13 199.516 405.13C201.154 405.13 202.428 404.116 202.792 402.712ZM204.272 405H205.39V401.776C205.39 400.255 206.287 399.54 207.106 399.54C207.327 399.54 207.509 399.566 207.717 399.644V398.487C207.535 398.448 207.379 398.435 207.21 398.435C206.456 398.435 205.65 398.929 205.39 399.761V398.5H204.272V405ZM210.762 407.717L215.026 398.5H213.778L211.555 403.427L209.319 398.5H208.084L210.931 404.662L209.514 407.717H210.762ZM216.143 407.717H217.261V403.999C217.69 404.623 218.574 405.13 219.549 405.13C221.356 405.13 222.734 403.609 222.734 401.75C222.734 399.891 221.356 398.37 219.549 398.37C218.574 398.37 217.69 398.877 217.261 399.501V398.5H216.143V407.717ZM221.59 401.75C221.59 403.063 220.693 404.103 219.38 404.103C218.067 404.103 217.17 403.063 217.17 401.75C217.17 400.437 218.067 399.397 219.38 399.397C220.693 399.397 221.59 400.437 221.59 401.75ZM227.752 404.909V403.908C227.544 403.986 227.232 404.038 226.959 404.038C226.257 404.038 225.88 403.765 225.88 402.933V399.527H227.752V398.5H225.88V396.693H224.762V398.5H223.384V399.527H224.762V403.076C224.762 404.428 225.62 405.065 226.751 405.065C227.154 405.065 227.479 405 227.752 404.909ZM230.533 395.965C230.533 395.536 230.195 395.172 229.753 395.172C229.311 395.172 228.947 395.536 228.947 395.965C228.947 396.407 229.311 396.758 229.753 396.758C230.195 396.758 230.533 396.407 230.533 395.965ZM229.181 405H230.299V398.5H229.181V405ZM238.697 401.75C238.697 399.878 237.254 398.37 235.304 398.37C233.341 398.37 231.898 399.878 231.898 401.75C231.898 403.622 233.341 405.13 235.304 405.13C237.254 405.13 238.697 403.622 238.697 401.75ZM233.042 401.75C233.042 400.45 233.952 399.41 235.304 399.41C236.656 399.41 237.553 400.45 237.553 401.75C237.553 403.05 236.656 404.09 235.304 404.09C233.952 404.09 233.042 403.05 233.042 401.75ZM240.302 405H241.42V401.776C241.42 400.255 242.252 399.397 243.305 399.397C244.215 399.397 244.839 400.073 244.839 401.165V405H245.944V400.996C245.944 399.384 244.943 398.37 243.487 398.37C242.642 398.37 241.862 398.734 241.42 399.501V398.5H240.302V405Z" fill="#001E2B"/>
<path opacity="0.9" d="M392.051 396.706L467.84 366.496C472.853 364.498 478.449 364.501 483.46 366.507L558.957 396.71C564.359 398.871 564.344 406.486 558.933 408.628L483.387 438.523C478.419 440.489 472.883 440.493 467.913 438.531L392.074 408.63C386.652 406.493 386.639 398.864 392.051 396.706Z" fill="#001E2B"/>
<path opacity="0.1" d="M392.051 412.706L467.84 382.496C472.853 380.498 478.449 380.501 483.46 382.507L558.957 412.71C564.359 414.871 564.344 422.486 558.933 424.628L483.387 454.523C478.419 456.489 472.883 456.493 467.913 454.531L392.074 424.63C386.652 422.493 386.639 414.864 392.051 412.706Z" fill="#001E2B"/>
<path d="M392.051 393.706L467.84 363.496C472.853 361.498 478.449 361.501 483.46 363.507L558.957 393.71C564.359 395.871 564.344 403.486 558.933 405.628L483.387 435.523C478.419 437.489 472.883 437.493 467.913 435.531L392.074 405.63C386.652 403.493 386.639 395.864 392.051 393.706Z" fill="#00D2FF"/>
<path d="M429.037 405H430.285L431.468 402.309H435.771L436.954 405H438.215L434.12 395.77H433.119L429.037 405ZM431.936 401.217L433.613 397.408L435.29 401.217H431.936ZM439.113 402.491C439.113 404.103 440.075 405.13 441.505 405.13C442.324 405.13 443.078 404.753 443.507 403.999V405H444.625V398.5H443.507V401.724C443.507 403.219 442.714 404.103 441.7 404.103C440.803 404.103 440.231 403.414 440.231 402.322V398.5H439.113V402.491ZM450.255 404.909V403.908C450.047 403.986 449.735 404.038 449.462 404.038C448.76 404.038 448.383 403.765 448.383 402.933V399.527H450.255V398.5H448.383V396.693H447.265V398.5H445.887V399.527H447.265V403.076C447.265 404.428 448.123 405.065 449.254 405.065C449.657 405.065 449.982 405 450.255 404.909ZM451.683 405H452.801V401.776C452.801 400.255 453.633 399.397 454.686 399.397C455.596 399.397 456.22 400.073 456.22 401.165V405H457.325V400.996C457.325 399.384 456.324 398.37 454.868 398.37C454.023 398.37 453.243 398.734 452.801 399.501V395.25H451.683V405ZM465.15 403.024H464.006C463.616 403.804 462.927 404.116 462.121 404.116C460.951 404.116 460.002 403.232 459.963 402.049H465.254C465.41 400.034 464.175 398.37 462.134 398.37C460.106 398.37 458.832 399.852 458.832 401.75C458.832 403.687 460.21 405.13 462.108 405.13C463.759 405.13 464.825 404.168 465.15 403.024ZM462.095 399.358C463.057 399.358 463.863 399.956 464.071 401.165H460.015C460.236 399.878 461.159 399.358 462.095 399.358ZM466.867 405H467.985V401.776C467.985 400.255 468.817 399.397 469.87 399.397C470.78 399.397 471.404 400.073 471.404 401.165V405H472.509V400.996C472.509 399.384 471.508 398.37 470.052 398.37C469.207 398.37 468.427 398.734 467.985 399.501V398.5H466.867V405ZM477.969 404.909V403.908C477.761 403.986 477.449 404.038 477.176 404.038C476.474 404.038 476.097 403.765 476.097 402.933V399.527H477.969V398.5H476.097V396.693H474.979V398.5H473.601V399.527H474.979V403.076C474.979 404.428 475.837 405.065 476.968 405.065C477.371 405.065 477.696 405 477.969 404.909ZM480.749 395.965C480.749 395.536 480.411 395.172 479.969 395.172C479.527 395.172 479.163 395.536 479.163 395.965C479.163 396.407 479.527 396.758 479.969 396.758C480.411 396.758 480.749 396.407 480.749 395.965ZM479.397 405H480.515V398.5H479.397V405ZM488.796 402.712H487.6C487.314 403.531 486.534 404.103 485.52 404.103C484.168 404.103 483.258 403.063 483.258 401.75C483.258 400.437 484.168 399.397 485.52 399.397C486.534 399.397 487.314 399.969 487.6 400.788H488.796C488.432 399.384 487.158 398.37 485.52 398.37C483.544 398.37 482.127 399.891 482.127 401.75C482.127 403.609 483.544 405.13 485.52 405.13C487.158 405.13 488.432 404.116 488.796 402.712ZM489.77 401.75C489.77 403.609 491.135 405.13 492.955 405.13C493.93 405.13 494.814 404.623 495.243 403.999V405H496.361V398.5H495.243V399.501C494.814 398.877 493.93 398.37 492.955 398.37C491.135 398.37 489.77 399.891 489.77 401.75ZM495.334 401.75C495.334 403.063 494.437 404.103 493.124 404.103C491.811 404.103 490.901 403.063 490.901 401.75C490.901 400.437 491.811 399.397 493.124 399.397C494.437 399.397 495.334 400.437 495.334 401.75ZM501.988 404.909V403.908C501.78 403.986 501.468 404.038 501.195 404.038C500.493 404.038 500.116 403.765 500.116 402.933V399.527H501.988V398.5H500.116V396.693H498.998V398.5H497.62V399.527H498.998V403.076C498.998 404.428 499.856 405.065 500.987 405.065C501.39 405.065 501.715 405 501.988 404.909ZM504.769 395.965C504.769 395.536 504.431 395.172 503.989 395.172C503.547 395.172 503.183 395.536 503.183 395.965C503.183 396.407 503.547 396.758 503.989 396.758C504.431 396.758 504.769 396.407 504.769 395.965ZM503.417 405H504.535V398.5H503.417V405ZM512.933 401.75C512.933 399.878 511.49 398.37 509.54 398.37C507.577 398.37 506.134 399.878 506.134 401.75C506.134 403.622 507.577 405.13 509.54 405.13C511.49 405.13 512.933 403.622 512.933 401.75ZM507.278 401.75C507.278 400.45 508.188 399.41 509.54 399.41C510.892 399.41 511.789 400.45 511.789 401.75C511.789 403.05 510.892 404.09 509.54 404.09C508.188 404.09 507.278 403.05 507.278 401.75ZM514.538 405H515.656V401.776C515.656 400.255 516.488 399.397 517.541 399.397C518.451 399.397 519.075 400.073 519.075 401.165V405H520.18V400.996C520.18 399.384 519.179 398.37 517.723 398.37C516.878 398.37 516.098 398.734 515.656 399.501V398.5H514.538V405Z" fill="#001E2B"/>
<path opacity="0.9" d="M519.051 345.706L594.84 315.496C599.853 313.498 605.449 313.501 610.46 315.507L685.957 345.71C691.359 347.871 691.344 355.486 685.933 357.628L610.387 387.523C605.419 389.489 599.883 389.493 594.913 387.531L519.074 357.63C513.652 355.493 513.639 347.864 519.051 345.706Z" fill="#001E2B"/>
<path d="M519.051 342.706L594.84 312.496C599.853 310.498 605.449 310.501 610.46 312.507L685.957 342.71C691.359 344.871 691.344 352.486 685.933 354.628L610.387 384.523C605.419 386.489 599.883 386.493 594.913 384.531L519.074 354.63C513.652 352.493 513.639 344.864 519.051 342.706Z" fill="#00D2FF"/>
<path d="M564.966 342.385C564.966 345.076 567.046 347.156 569.75 347.156C572.077 347.156 573.767 345.635 574.17 343.958H572.896C572.493 345.115 571.284 346.012 569.75 346.012C567.696 346.012 566.175 344.426 566.175 342.385C566.175 340.344 567.696 338.758 569.75 338.758C571.284 338.758 572.493 339.655 572.896 340.812H574.17C573.767 339.135 572.077 337.614 569.75 337.614C567.046 337.614 564.966 339.694 564.966 342.385ZM581.945 343.75C581.945 341.878 580.502 340.37 578.552 340.37C576.589 340.37 575.146 341.878 575.146 343.75C575.146 345.622 576.589 347.13 578.552 347.13C580.502 347.13 581.945 345.622 581.945 343.75ZM576.29 343.75C576.29 342.45 577.2 341.41 578.552 341.41C579.904 341.41 580.801 342.45 580.801 343.75C580.801 345.05 579.904 346.09 578.552 346.09C577.2 346.09 576.29 345.05 576.29 343.75ZM583.55 347H584.668V343.776C584.668 342.307 585.409 341.397 586.462 341.397C587.307 341.397 587.736 342.125 587.736 343.178V347H588.854V343.776C588.854 342.307 589.582 341.397 590.635 341.397C591.48 341.397 591.922 342.125 591.922 343.178V347H593.04V343.009C593.04 341.423 592.182 340.37 590.765 340.37C589.803 340.37 588.984 340.903 588.633 341.761C588.308 340.903 587.606 340.37 586.631 340.37C585.76 340.37 585.045 340.812 584.668 341.501V340.5H583.55V347ZM595.052 347H596.17V343.776C596.17 342.307 596.911 341.397 597.964 341.397C598.809 341.397 599.238 342.125 599.238 343.178V347H600.356V343.776C600.356 342.307 601.084 341.397 602.137 341.397C602.982 341.397 603.424 342.125 603.424 343.178V347H604.542V343.009C604.542 341.423 603.684 340.37 602.267 340.37C601.305 340.37 600.486 340.903 600.135 341.761C599.81 340.903 599.108 340.37 598.133 340.37C597.262 340.37 596.547 340.812 596.17 341.501V340.5H595.052V347ZM612.364 345.024H611.22C610.83 345.804 610.141 346.116 609.335 346.116C608.165 346.116 607.216 345.232 607.177 344.049H612.468C612.624 342.034 611.389 340.37 609.348 340.37C607.32 340.37 606.046 341.852 606.046 343.75C606.046 345.687 607.424 347.13 609.322 347.13C610.973 347.13 612.039 346.168 612.364 345.024ZM609.309 341.358C610.271 341.358 611.077 341.956 611.285 343.165H607.229C607.45 341.878 608.373 341.358 609.309 341.358ZM614.082 347H615.2V343.776C615.2 342.255 616.097 341.54 616.916 341.54C617.137 341.54 617.319 341.566 617.527 341.644V340.487C617.345 340.448 617.189 340.435 617.02 340.435C616.266 340.435 615.46 340.929 615.2 341.761V340.5H614.082V347ZM624.776 344.712H623.58C623.294 345.531 622.514 346.103 621.5 346.103C620.148 346.103 619.238 345.063 619.238 343.75C619.238 342.437 620.148 341.397 621.5 341.397C622.514 341.397 623.294 341.969 623.58 342.788H624.776C624.412 341.384 623.138 340.37 621.5 340.37C619.524 340.37 618.107 341.891 618.107 343.75C618.107 345.609 619.524 347.13 621.5 347.13C623.138 347.13 624.412 346.116 624.776 344.712ZM627.609 337.965C627.609 337.536 627.271 337.172 626.829 337.172C626.387 337.172 626.023 337.536 626.023 337.965C626.023 338.407 626.387 338.758 626.829 338.758C627.271 338.758 627.609 338.407 627.609 337.965ZM626.257 347H627.375V340.5H626.257V347ZM628.987 343.75C628.987 345.609 630.352 347.13 632.172 347.13C633.147 347.13 634.031 346.623 634.46 345.999V347H635.578V340.5H634.46V341.501C634.031 340.877 633.147 340.37 632.172 340.37C630.352 340.37 628.987 341.891 628.987 343.75ZM634.551 343.75C634.551 345.063 633.654 346.103 632.341 346.103C631.028 346.103 630.118 345.063 630.118 343.75C630.118 342.437 631.028 341.397 632.341 341.397C633.654 341.397 634.551 342.437 634.551 343.75ZM637.682 347H638.8V337.25H637.682V347ZM579.954 360H585.622V358.856H581.163V350.77H579.954V360ZM588.247 350.965C588.247 350.536 587.909 350.172 587.467 350.172C587.025 350.172 586.661 350.536 586.661 350.965C586.661 351.407 587.025 351.758 587.467 351.758C587.909 351.758 588.247 351.407 588.247 350.965ZM586.895 360H588.013V353.5H586.895V360ZM596.294 357.712H595.098C594.812 358.531 594.032 359.103 593.018 359.103C591.666 359.103 590.756 358.063 590.756 356.75C590.756 355.437 591.666 354.397 593.018 354.397C594.032 354.397 594.812 354.969 595.098 355.788H596.294C595.93 354.384 594.656 353.37 593.018 353.37C591.042 353.37 589.625 354.891 589.625 356.75C589.625 358.609 591.042 360.13 593.018 360.13C594.656 360.13 595.93 359.116 596.294 357.712ZM603.586 358.024H602.442C602.052 358.804 601.363 359.116 600.557 359.116C599.387 359.116 598.438 358.232 598.399 357.049H603.69C603.846 355.034 602.611 353.37 600.57 353.37C598.542 353.37 597.268 354.852 597.268 356.75C597.268 358.687 598.646 360.13 600.544 360.13C602.195 360.13 603.261 359.168 603.586 358.024ZM600.531 354.358C601.493 354.358 602.299 354.956 602.507 356.165H598.451C598.672 354.878 599.595 354.358 600.531 354.358ZM605.303 360H606.421V356.776C606.421 355.255 607.253 354.397 608.306 354.397C609.216 354.397 609.84 355.073 609.84 356.165V360H610.945V355.996C610.945 354.384 609.944 353.37 608.488 353.37C607.643 353.37 606.863 353.734 606.421 354.501V353.5H605.303V360ZM617.443 358.245C617.443 357.27 616.858 356.594 615.779 356.321L614.739 356.048C614.05 355.866 613.751 355.593 613.751 355.112C613.751 354.618 614.245 354.306 614.869 354.306C615.48 354.306 615.948 354.657 616.117 355.229H617.235C617.118 354.189 616.26 353.37 614.869 353.37C613.556 353.37 612.62 354.046 612.62 355.125C612.62 356.048 613.179 356.75 614.297 357.036L615.233 357.283C616 357.491 616.312 357.803 616.312 358.323C616.312 358.895 615.766 359.181 615.064 359.181C614.388 359.181 613.712 358.908 613.556 358.115H612.412C612.503 359.428 613.66 360.13 615.051 360.13C616.403 360.13 617.443 359.532 617.443 358.245ZM624.838 358.024H623.694C623.304 358.804 622.615 359.116 621.809 359.116C620.639 359.116 619.69 358.232 619.651 357.049H624.942C625.098 355.034 623.863 353.37 621.822 353.37C619.794 353.37 618.52 354.852 618.52 356.75C618.52 358.687 619.898 360.13 621.796 360.13C623.447 360.13 624.513 359.168 624.838 358.024ZM621.783 354.358C622.745 354.358 623.551 354.956 623.759 356.165H619.703C619.924 354.878 620.847 354.358 621.783 354.358Z" fill="#001E2B"/>
<path opacity="0.1" d="M125.647 154.549L324.865 73.9903C338.043 68.6623 352.752 68.668 365.924 74.0188L564.373 154.561C578.574 160.322 578.535 180.63 564.311 186.341L365.732 266.061C352.673 271.303 338.122 271.315 325.057 266.084L125.709 186.346C111.458 180.647 111.424 160.305 125.647 154.549Z" fill="#001E2B"/>
<path opacity="0.9" d="M125.647 130.549L324.865 49.9903C338.043 44.6623 352.752 44.668 365.924 50.0188L564.373 130.561C578.574 136.322 578.535 156.63 564.311 162.341L365.732 242.061C352.673 247.303 338.122 247.315 325.057 242.084L125.709 162.346C111.458 156.647 111.424 136.305 125.647 130.549Z" fill="#001E2B"/>
<path d="M125.647 127.549L324.865 46.9903C338.043 41.6623 352.752 41.668 365.924 47.0188L564.373 127.561C578.574 133.322 578.535 153.63 564.311 159.341L365.732 239.061C352.673 244.303 338.122 244.315 325.057 239.084L125.709 159.346C111.458 153.647 111.424 133.305 125.647 127.549Z" fill="#00ED64"/>
<path d="M247.837 151H251.509C255.433 151 258.313 148.264 258.313 144.61C258.313 140.956 255.433 138.22 251.509 138.22H247.837V151ZM249.511 149.434V139.786H251.509C254.587 139.786 256.621 141.838 256.621 144.61C256.621 147.382 254.587 149.434 251.509 149.434H249.511ZM259.873 146.5C259.873 149.074 261.763 151.18 264.283 151.18C265.633 151.18 266.857 150.478 267.451 149.614V151H268.999V142H267.451V143.386C266.857 142.522 265.633 141.82 264.283 141.82C261.763 141.82 259.873 143.926 259.873 146.5ZM267.577 146.5C267.577 148.318 266.335 149.758 264.517 149.758C262.699 149.758 261.439 148.318 261.439 146.5C261.439 144.682 262.699 143.242 264.517 143.242C266.335 143.242 267.577 144.682 267.577 146.5ZM276.791 150.874V149.488C276.503 149.596 276.071 149.668 275.693 149.668C274.721 149.668 274.199 149.29 274.199 148.138V143.422H276.791V142H274.199V139.498H272.651V142H270.743V143.422H272.651V148.336C272.651 150.208 273.839 151.09 275.405 151.09C275.963 151.09 276.413 151 276.791 150.874ZM277.944 146.5C277.944 149.074 279.833 151.18 282.354 151.18C283.704 151.18 284.928 150.478 285.522 149.614V151H287.07V142H285.522V143.386C284.928 142.522 283.704 141.82 282.354 141.82C279.833 141.82 277.944 143.926 277.944 146.5ZM285.648 146.5C285.648 148.318 284.406 149.758 282.588 149.758C280.77 149.758 279.51 148.318 279.51 146.5C279.51 144.682 280.77 143.242 282.588 143.242C284.406 143.242 285.648 144.682 285.648 146.5ZM291.531 149.614C292.125 150.478 293.349 151.18 294.699 151.18C297.201 151.18 299.109 149.074 299.109 146.5C299.109 143.926 297.201 141.82 294.699 141.82C293.349 141.82 292.125 142.522 291.531 143.386V137.5H289.983V151H291.531V149.614ZM297.525 146.5C297.525 148.318 296.283 149.758 294.465 149.758C292.647 149.758 291.405 148.318 291.405 146.5C291.405 144.682 292.647 143.242 294.465 143.242C296.283 143.242 297.525 144.682 297.525 146.5ZM300.619 146.5C300.619 149.074 302.509 151.18 305.029 151.18C306.379 151.18 307.603 150.478 308.197 149.614V151H309.745V142H308.197V143.386C307.603 142.522 306.379 141.82 305.029 141.82C302.509 141.82 300.619 143.926 300.619 146.5ZM308.323 146.5C308.323 148.318 307.081 149.758 305.263 149.758C303.445 149.758 302.185 148.318 302.185 146.5C302.185 144.682 303.445 143.242 305.263 143.242C307.081 143.242 308.323 144.682 308.323 146.5ZM318.869 148.57C318.869 147.22 318.059 146.284 316.565 145.906L315.125 145.528C314.171 145.276 313.757 144.898 313.757 144.232C313.757 143.548 314.441 143.116 315.305 143.116C316.151 143.116 316.799 143.602 317.033 144.394H318.581C318.419 142.954 317.231 141.82 315.305 141.82C313.487 141.82 312.191 142.756 312.191 144.25C312.191 145.528 312.965 146.5 314.513 146.896L315.809 147.238C316.871 147.526 317.303 147.958 317.303 148.678C317.303 149.47 316.547 149.866 315.575 149.866C314.639 149.866 313.703 149.488 313.487 148.39H311.903C312.029 150.208 313.631 151.18 315.557 151.18C317.429 151.18 318.869 150.352 318.869 148.57ZM329.108 148.264H327.524C326.984 149.344 326.03 149.776 324.914 149.776C323.294 149.776 321.98 148.552 321.926 146.914H329.252C329.468 144.124 327.758 141.82 324.932 141.82C322.124 141.82 320.36 143.872 320.36 146.5C320.36 149.182 322.268 151.18 324.896 151.18C327.182 151.18 328.658 149.848 329.108 148.264ZM324.878 143.188C326.21 143.188 327.326 144.016 327.614 145.69H321.998C322.304 143.908 323.582 143.188 324.878 143.188ZM342.343 147.256L346.951 141.064V151H348.607V138.22H347.095L342.343 144.592L337.591 138.22H336.061V151H337.735V141.064L342.343 147.256ZM350.91 146.5C350.91 149.074 352.8 151.18 355.32 151.18C356.67 151.18 357.894 150.478 358.488 149.614V151H360.036V142H358.488V143.386C357.894 142.522 356.67 141.82 355.32 141.82C352.8 141.82 350.91 143.926 350.91 146.5ZM358.614 146.5C358.614 148.318 357.372 149.758 355.554 149.758C353.736 149.758 352.476 148.318 352.476 146.5C352.476 144.682 353.736 143.242 355.554 143.242C357.372 143.242 358.614 144.682 358.614 146.5ZM362.95 151H364.498V146.536C364.498 144.43 365.65 143.242 367.108 143.242C368.368 143.242 369.232 144.178 369.232 145.69V151H370.762V145.456C370.762 143.224 369.376 141.82 367.36 141.82C366.19 141.82 365.11 142.324 364.498 143.386V142H362.95V151ZM372.848 146.5C372.848 149.074 374.738 151.18 377.258 151.18C378.608 151.18 379.832 150.478 380.426 149.614V151H381.974V142H380.426V143.386C379.832 142.522 378.608 141.82 377.258 141.82C374.738 141.82 372.848 143.926 372.848 146.5ZM380.552 146.5C380.552 148.318 379.31 149.758 377.492 149.758C375.674 149.758 374.414 148.318 374.414 146.5C374.414 144.682 375.674 143.242 377.492 143.242C379.31 143.242 380.552 144.682 380.552 146.5ZM384.492 151.828C384.762 153.646 386.436 154.942 388.848 154.942C391.296 154.942 393.276 153.448 393.276 150.442V142H391.728V143.386C391.116 142.486 389.928 141.82 388.596 141.82C386.094 141.82 384.186 143.836 384.186 146.392C384.186 148.966 386.094 150.982 388.596 150.982C389.928 150.982 391.116 150.298 391.728 149.398V150.46C391.728 152.494 390.504 153.574 388.884 153.574C387.426 153.574 386.418 153.016 386.004 151.828H384.492ZM391.854 146.392C391.854 148.21 390.612 149.542 388.812 149.542C387.012 149.542 385.77 148.21 385.77 146.392C385.77 144.592 387.012 143.242 388.812 143.242C390.612 143.242 391.854 144.592 391.854 146.392ZM404.236 148.264H402.652C402.112 149.344 401.158 149.776 400.042 149.776C398.422 149.776 397.108 148.552 397.054 146.914H404.38C404.596 144.124 402.886 141.82 400.06 141.82C397.252 141.82 395.488 143.872 395.488 146.5C395.488 149.182 397.396 151.18 400.024 151.18C402.31 151.18 403.786 149.848 404.236 148.264ZM400.006 143.188C401.338 143.188 402.454 144.016 402.742 145.69H397.126C397.432 143.908 398.71 143.188 400.006 143.188ZM406.614 151H408.162V146.536C408.162 144.502 409.188 143.242 410.646 143.242C411.816 143.242 412.41 144.25 412.41 145.708V151H413.958V146.536C413.958 144.502 414.966 143.242 416.424 143.242C417.594 143.242 418.206 144.25 418.206 145.708V151H419.754V145.474C419.754 143.278 418.566 141.82 416.604 141.82C415.272 141.82 414.138 142.558 413.652 143.746C413.202 142.558 412.23 141.82 410.88 141.82C409.674 141.82 408.684 142.432 408.162 143.386V142H406.614V151ZM430.586 148.264H429.002C428.462 149.344 427.508 149.776 426.392 149.776C424.772 149.776 423.458 148.552 423.404 146.914H430.73C430.946 144.124 429.236 141.82 426.41 141.82C423.602 141.82 421.838 143.872 421.838 146.5C421.838 149.182 423.746 151.18 426.374 151.18C428.66 151.18 430.136 149.848 430.586 148.264ZM426.356 143.188C427.688 143.188 428.804 144.016 429.092 145.69H423.476C423.782 143.908 425.06 143.188 426.356 143.188ZM432.964 151H434.512V146.536C434.512 144.43 435.664 143.242 437.122 143.242C438.382 143.242 439.246 144.178 439.246 145.69V151H440.776V145.456C440.776 143.224 439.39 141.82 437.374 141.82C436.204 141.82 435.124 142.324 434.512 143.386V142H432.964V151ZM448.336 150.874V149.488C448.048 149.596 447.616 149.668 447.238 149.668C446.266 149.668 445.744 149.29 445.744 148.138V143.422H448.336V142H445.744V139.498H444.196V142H442.288V143.422H444.196V148.336C444.196 150.208 445.384 151.09 446.95 151.09C447.508 151.09 447.958 151 448.336 150.874Z" fill="#001E2B"/>
<path opacity="0.9" d="M4.05051 196.706L79.8396 166.496C84.8529 164.498 90.4489 164.501 95.46 166.507L170.957 196.71C176.359 198.871 176.344 206.486 170.933 208.628L95.387 238.523C90.4188 240.489 84.883 240.493 79.9127 238.531L4.07415 208.63C-1.34764 206.493 -1.36054 198.864 4.05051 196.706Z" fill="#001E2B"/>
<path d="M4.05051 193.706L79.8396 163.496C84.8529 161.498 90.4489 161.501 95.46 163.507L170.957 193.71C176.359 195.871 176.344 203.486 170.933 205.628L95.387 235.523C90.4188 237.489 84.883 237.493 79.9127 235.531L4.07415 205.63C-1.34764 203.493 -1.36054 195.864 4.05051 193.706Z" fill="#A6FFEC"/>
<path d="M50.6361 205H51.8841L53.0671 202.309H57.3701L58.5531 205H59.8141L55.7191 195.77H54.7181L50.6361 205ZM53.5351 201.217L55.2121 197.408L56.8891 201.217H53.5351ZM60.7115 202.491C60.7115 204.103 61.6735 205.13 63.1035 205.13C63.9225 205.13 64.6765 204.753 65.1055 203.999V205H66.2235V198.5H65.1055V201.724C65.1055 203.219 64.3125 204.103 63.2985 204.103C62.4015 204.103 61.8295 203.414 61.8295 202.322V198.5H60.7115V202.491ZM71.8538 204.909V203.908C71.6458 203.986 71.3338 204.038 71.0608 204.038C70.3588 204.038 69.9818 203.765 69.9818 202.933V199.527H71.8538V198.5H69.9818V196.693H68.8638V198.5H67.4858V199.527H68.8638V203.076C68.8638 204.428 69.7218 205.065 70.8528 205.065C71.2558 205.065 71.5808 205 71.8538 204.909ZM79.4721 201.75C79.4721 199.878 78.0291 198.37 76.0791 198.37C74.1161 198.37 72.6731 199.878 72.6731 201.75C72.6731 203.622 74.1161 205.13 76.0791 205.13C78.0291 205.13 79.4721 203.622 79.4721 201.75ZM73.8171 201.75C73.8171 200.45 74.7271 199.41 76.0791 199.41C77.4311 199.41 78.3281 200.45 78.3281 201.75C78.3281 203.05 77.4311 204.09 76.0791 204.09C74.7271 204.09 73.8171 203.05 73.8171 201.75ZM81.0769 205H82.1949V201.776C82.1949 200.307 82.9359 199.397 83.9889 199.397C84.8339 199.397 85.2629 200.125 85.2629 201.178V205H86.3809V201.776C86.3809 200.307 87.1089 199.397 88.1619 199.397C89.0069 199.397 89.4489 200.125 89.4489 201.178V205H90.5669V201.009C90.5669 199.423 89.7089 198.37 88.2919 198.37C87.3299 198.37 86.5109 198.903 86.1599 199.761C85.8349 198.903 85.1329 198.37 84.1579 198.37C83.2869 198.37 82.5719 198.812 82.1949 199.501V198.5H81.0769V205ZM92.0719 201.75C92.0719 203.609 93.4369 205.13 95.2569 205.13C96.2319 205.13 97.1159 204.623 97.5449 203.999V205H98.6629V198.5H97.5449V199.501C97.1159 198.877 96.2319 198.37 95.2569 198.37C93.4369 198.37 92.0719 199.891 92.0719 201.75ZM97.6359 201.75C97.6359 203.063 96.7389 204.103 95.4259 204.103C94.1129 204.103 93.2029 203.063 93.2029 201.75C93.2029 200.437 94.1129 199.397 95.4259 199.397C96.7389 199.397 97.6359 200.437 97.6359 201.75ZM104.29 204.909V203.908C104.082 203.986 103.77 204.038 103.497 204.038C102.795 204.038 102.418 203.765 102.418 202.933V199.527H104.29V198.5H102.418V196.693H101.3V198.5H99.9224V199.527H101.3V203.076C101.3 204.428 102.158 205.065 103.289 205.065C103.692 205.065 104.017 205 104.29 204.909ZM107.071 195.965C107.071 195.536 106.733 195.172 106.291 195.172C105.849 195.172 105.485 195.536 105.485 195.965C105.485 196.407 105.849 196.758 106.291 196.758C106.733 196.758 107.071 196.407 107.071 195.965ZM105.719 205H106.837V198.5H105.719V205ZM115.235 201.75C115.235 199.878 113.792 198.37 111.842 198.37C109.879 198.37 108.436 199.878 108.436 201.75C108.436 203.622 109.879 205.13 111.842 205.13C113.792 205.13 115.235 203.622 115.235 201.75ZM109.58 201.75C109.58 200.45 110.49 199.41 111.842 199.41C113.194 199.41 114.091 200.45 114.091 201.75C114.091 203.05 113.194 204.09 111.842 204.09C110.49 204.09 109.58 203.05 109.58 201.75ZM116.84 205H117.958V201.776C117.958 200.255 118.79 199.397 119.843 199.397C120.753 199.397 121.377 200.073 121.377 201.165V205H122.482V200.996C122.482 199.384 121.481 198.37 120.025 198.37C119.18 198.37 118.4 198.734 117.958 199.501V198.5H116.84V205Z" fill="#001E2B"/>
<path opacity="0.9" d="M131.051 247.706L206.84 217.496C211.853 215.498 217.449 215.501 222.46 217.507L297.957 247.71C303.359 249.871 303.344 257.486 297.933 259.628L222.387 289.523C217.419 291.489 211.883 291.493 206.913 289.531L131.074 259.63C125.652 257.493 125.639 249.864 131.051 247.706Z" fill="#001E2B"/>
<path opacity="0.1" d="M131.051 263.706L206.84 233.496C211.853 231.498 217.449 231.501 222.46 233.507L297.957 263.71C303.359 265.871 303.344 273.486 297.933 275.628L222.387 305.523C217.419 307.489 211.883 307.493 206.913 305.531L131.074 275.63C125.652 273.493 125.639 265.864 131.051 263.706Z" fill="#001E2B"/>
<path d="M131.051 244.706L206.84 214.496C211.853 212.498 217.449 212.501 222.46 214.507L297.957 244.71C303.359 246.871 303.344 254.486 297.933 256.628L222.387 286.523C217.419 288.489 211.883 288.493 206.913 286.531L131.074 256.63C125.652 254.493 125.639 246.864 131.051 244.706Z" fill="#A6FFEC"/>
<path d="M186.254 253.296L189.582 248.824V256H190.778V246.77H189.686L186.254 251.372L182.822 246.77H181.717V256H182.926V248.824L186.254 253.296ZM199.227 252.75C199.227 250.878 197.784 249.37 195.834 249.37C193.871 249.37 192.428 250.878 192.428 252.75C192.428 254.622 193.871 256.13 195.834 256.13C197.784 256.13 199.227 254.622 199.227 252.75ZM193.572 252.75C193.572 251.45 194.482 250.41 195.834 250.41C197.186 250.41 198.083 251.45 198.083 252.75C198.083 254.05 197.186 255.09 195.834 255.09C194.482 255.09 193.572 254.05 193.572 252.75ZM200.832 256H201.95V252.776C201.95 251.255 202.782 250.397 203.835 250.397C204.745 250.397 205.369 251.073 205.369 252.165V256H206.474V251.996C206.474 250.384 205.473 249.37 204.017 249.37C203.172 249.37 202.392 249.734 201.95 250.501V249.5H200.832V256ZM209.839 246.965C209.839 246.536 209.501 246.172 209.059 246.172C208.617 246.172 208.253 246.536 208.253 246.965C208.253 247.407 208.617 247.758 209.059 247.758C209.501 247.758 209.839 247.407 209.839 246.965ZM208.487 256H209.605V249.5H208.487V256ZM215.248 255.909V254.908C215.04 254.986 214.728 255.038 214.455 255.038C213.753 255.038 213.376 254.765 213.376 253.933V250.527H215.248V249.5H213.376V247.693H212.258V249.5H210.88V250.527H212.258V254.076C212.258 255.428 213.116 256.065 214.247 256.065C214.65 256.065 214.975 256 215.248 255.909ZM222.866 252.75C222.866 250.878 221.423 249.37 219.473 249.37C217.51 249.37 216.067 250.878 216.067 252.75C216.067 254.622 217.51 256.13 219.473 256.13C221.423 256.13 222.866 254.622 222.866 252.75ZM217.211 252.75C217.211 251.45 218.121 250.41 219.473 250.41C220.825 250.41 221.722 251.45 221.722 252.75C221.722 254.05 220.825 255.09 219.473 255.09C218.121 255.09 217.211 254.05 217.211 252.75ZM224.471 256H225.589V252.776C225.589 251.255 226.486 250.54 227.305 250.54C227.526 250.54 227.708 250.566 227.916 250.644V249.487C227.734 249.448 227.578 249.435 227.409 249.435C226.655 249.435 225.849 249.929 225.589 250.761V249.5H224.471V256ZM230.583 246.965C230.583 246.536 230.245 246.172 229.803 246.172C229.361 246.172 228.997 246.536 228.997 246.965C228.997 247.407 229.361 247.758 229.803 247.758C230.245 247.758 230.583 247.407 230.583 246.965ZM229.231 256H230.349V249.5H229.231V256ZM232.469 256H233.587V252.776C233.587 251.255 234.419 250.397 235.472 250.397C236.382 250.397 237.006 251.073 237.006 252.165V256H238.111V251.996C238.111 250.384 237.11 249.37 235.654 249.37C234.809 249.37 234.029 249.734 233.587 250.501V249.5H232.469V256ZM239.838 256.598C240.033 257.911 241.242 258.847 242.984 258.847C244.752 258.847 246.182 257.768 246.182 255.597V249.5H245.064V250.501C244.622 249.851 243.764 249.37 242.802 249.37C240.995 249.37 239.617 250.826 239.617 252.672C239.617 254.531 240.995 255.987 242.802 255.987C243.764 255.987 244.622 255.493 245.064 254.843V255.61C245.064 257.079 244.18 257.859 243.01 257.859C241.957 257.859 241.229 257.456 240.93 256.598H239.838ZM245.155 252.672C245.155 253.985 244.258 254.947 242.958 254.947C241.658 254.947 240.761 253.985 240.761 252.672C240.761 251.372 241.658 250.397 242.958 250.397C244.258 250.397 245.155 251.372 245.155 252.672Z" fill="#001E2B"/>
<path opacity="0.9" d="M392.051 247.706L467.84 217.496C472.853 215.498 478.449 215.501 483.46 217.507L558.957 247.71C564.359 249.871 564.344 257.486 558.933 259.628L483.387 289.523C478.419 291.489 472.883 291.493 467.913 289.531L392.074 259.63C386.652 257.493 386.639 249.864 392.051 247.706Z" fill="#001E2B"/>
<path opacity="0.1" d="M392.051 263.706L467.84 233.496C472.853 231.498 478.449 231.501 483.46 233.507L558.957 263.71C564.359 265.871 564.344 273.486 558.933 275.628L483.387 305.523C478.419 307.489 472.883 307.493 467.913 305.531L392.074 275.63C386.652 273.493 386.639 265.864 392.051 263.706Z" fill="#001E2B"/>
<path d="M392.051 244.706L467.84 214.496C472.853 212.498 478.449 212.501 483.46 214.507L558.957 244.71C564.359 246.871 564.344 254.486 558.933 256.628L483.387 286.523C478.419 288.489 472.883 288.493 467.913 286.531L392.074 256.63C386.652 254.493 386.639 246.864 392.051 244.706Z" fill="#A6FFEC"/>
<path d="M445.256 251.385C445.256 248.707 443.15 246.614 440.485 246.614C437.833 246.614 435.714 248.707 435.714 251.385C435.714 254.063 437.833 256.156 440.485 256.156C443.15 256.156 445.256 254.063 445.256 251.385ZM436.936 251.385C436.936 249.357 438.47 247.758 440.485 247.758C442.513 247.758 444.047 249.357 444.047 251.385C444.047 253.413 442.513 255.012 440.485 255.012C438.47 255.012 436.936 253.413 436.936 251.385ZM446.897 258.717H448.015V254.999C448.444 255.623 449.328 256.13 450.303 256.13C452.11 256.13 453.488 254.609 453.488 252.75C453.488 250.891 452.11 249.37 450.303 249.37C449.328 249.37 448.444 249.877 448.015 250.501V249.5H446.897V258.717ZM452.344 252.75C452.344 254.063 451.447 255.103 450.134 255.103C448.821 255.103 447.924 254.063 447.924 252.75C447.924 251.437 448.821 250.397 450.134 250.397C451.447 250.397 452.344 251.437 452.344 252.75ZM458.507 255.909V254.908C458.299 254.986 457.987 255.038 457.714 255.038C457.012 255.038 456.635 254.765 456.635 253.933V250.527H458.507V249.5H456.635V247.693H455.517V249.5H454.139V250.527H455.517V254.076C455.517 255.428 456.375 256.065 457.506 256.065C457.909 256.065 458.234 256 458.507 255.909ZM461.287 246.965C461.287 246.536 460.949 246.172 460.507 246.172C460.065 246.172 459.701 246.536 459.701 246.965C459.701 247.407 460.065 247.758 460.507 247.758C460.949 247.758 461.287 247.407 461.287 246.965ZM459.935 256H461.053V249.5H459.935V256ZM463.172 256H464.29V252.776C464.29 251.307 465.031 250.397 466.084 250.397C466.929 250.397 467.358 251.125 467.358 252.178V256H468.476V252.776C468.476 251.307 469.204 250.397 470.257 250.397C471.102 250.397 471.544 251.125 471.544 252.178V256H472.662V252.009C472.662 250.423 471.804 249.37 470.387 249.37C469.425 249.37 468.606 249.903 468.255 250.761C467.93 249.903 467.228 249.37 466.253 249.37C465.382 249.37 464.667 249.812 464.29 250.501V249.5H463.172V256ZM476.026 246.965C476.026 246.536 475.688 246.172 475.246 246.172C474.804 246.172 474.44 246.536 474.44 246.965C474.44 247.407 474.804 247.758 475.246 247.758C475.688 247.758 476.026 247.407 476.026 246.965ZM474.674 256H475.792V249.5H474.674V256ZM477.379 256H482.657V254.973H478.835L482.54 250.397V249.5H477.431V250.527H481.11L477.379 255.116V256ZM483.6 252.75C483.6 254.609 484.965 256.13 486.785 256.13C487.76 256.13 488.644 255.623 489.073 254.999V256H490.191V249.5H489.073V250.501C488.644 249.877 487.76 249.37 486.785 249.37C484.965 249.37 483.6 250.891 483.6 252.75ZM489.164 252.75C489.164 254.063 488.267 255.103 486.954 255.103C485.641 255.103 484.731 254.063 484.731 252.75C484.731 251.437 485.641 250.397 486.954 250.397C488.267 250.397 489.164 251.437 489.164 252.75ZM495.819 255.909V254.908C495.611 254.986 495.299 255.038 495.026 255.038C494.324 255.038 493.947 254.765 493.947 253.933V250.527H495.819V249.5H493.947V247.693H492.829V249.5H491.451V250.527H492.829V254.076C492.829 255.428 493.687 256.065 494.818 256.065C495.221 256.065 495.546 256 495.819 255.909ZM498.599 246.965C498.599 246.536 498.261 246.172 497.819 246.172C497.377 246.172 497.013 246.536 497.013 246.965C497.013 247.407 497.377 247.758 497.819 247.758C498.261 247.758 498.599 247.407 498.599 246.965ZM497.247 256H498.365V249.5H497.247V256ZM506.763 252.75C506.763 250.878 505.32 249.37 503.37 249.37C501.407 249.37 499.964 250.878 499.964 252.75C499.964 254.622 501.407 256.13 503.37 256.13C505.32 256.13 506.763 254.622 506.763 252.75ZM501.108 252.75C501.108 251.45 502.018 250.41 503.37 250.41C504.722 250.41 505.619 251.45 505.619 252.75C505.619 254.05 504.722 255.09 503.37 255.09C502.018 255.09 501.108 254.05 501.108 252.75ZM508.368 256H509.486V252.776C509.486 251.255 510.318 250.397 511.371 250.397C512.281 250.397 512.905 251.073 512.905 252.165V256H514.01V251.996C514.01 250.384 513.009 249.37 511.553 249.37C510.708 249.37 509.928 249.734 509.486 250.501V249.5H508.368V256Z" fill="#001E2B"/>
<path opacity="0.9" d="M519.051 196.706L594.84 166.496C599.853 164.498 605.449 164.501 610.46 166.507L685.957 196.71C691.359 198.871 691.344 206.486 685.933 208.628L610.387 238.523C605.419 240.489 599.883 240.493 594.913 238.531L519.074 208.63C513.652 206.493 513.639 198.864 519.051 196.706Z" fill="#001E2B"/>
<path d="M519.051 193.706L594.84 163.496C599.853 161.498 605.449 161.501 610.46 163.507L685.957 193.71C691.359 195.871 691.344 203.486 685.933 205.628L610.387 235.523C605.419 237.489 599.883 237.493 594.913 235.531L519.074 205.63C513.652 203.493 513.639 195.864 519.051 193.706Z" fill="#A6FFEC"/>
<path d="M576.933 205H580.235C582.107 205 583.329 203.843 583.329 202.309C583.329 201.074 582.627 200.424 581.73 200.099C582.315 199.735 582.718 199.124 582.718 198.214C582.718 196.914 581.678 195.77 579.962 195.77H576.933V205ZM578.142 199.735V196.862H579.962C580.95 196.862 581.535 197.525 581.535 198.305C581.535 199.124 580.95 199.735 579.962 199.735H578.142ZM578.142 203.908V200.775H580.3C581.522 200.775 582.146 201.451 582.146 202.348C582.146 203.258 581.522 203.908 580.287 203.908H578.142ZM584.433 201.75C584.433 203.609 585.798 205.13 587.618 205.13C588.593 205.13 589.477 204.623 589.906 203.999V205H591.024V198.5H589.906V199.501C589.477 198.877 588.593 198.37 587.618 198.37C585.798 198.37 584.433 199.891 584.433 201.75ZM589.997 201.75C589.997 203.063 589.1 204.103 587.787 204.103C586.474 204.103 585.564 203.063 585.564 201.75C585.564 200.437 586.474 199.397 587.787 199.397C589.1 199.397 589.997 200.437 589.997 201.75ZM599.29 202.712H598.094C597.808 203.531 597.028 204.103 596.014 204.103C594.662 204.103 593.752 203.063 593.752 201.75C593.752 200.437 594.662 199.397 596.014 199.397C597.028 199.397 597.808 199.969 598.094 200.788H599.29C598.926 199.384 597.652 198.37 596.014 198.37C594.038 198.37 592.621 199.891 592.621 201.75C592.621 203.609 594.038 205.13 596.014 205.13C597.652 205.13 598.926 204.116 599.29 202.712ZM600.771 205H601.889V201.75L605.412 205H606.92L603.007 201.373L606.205 198.5H604.723L601.889 201.035V195.25H600.771V205ZM607.688 202.491C607.688 204.103 608.65 205.13 610.08 205.13C610.899 205.13 611.653 204.753 612.082 203.999V205H613.2V198.5H612.082V201.724C612.082 203.219 611.289 204.103 610.275 204.103C609.378 204.103 608.806 203.414 608.806 202.322V198.5H607.688V202.491ZM615.307 207.717H616.425V203.999C616.854 204.623 617.738 205.13 618.713 205.13C620.52 205.13 621.898 203.609 621.898 201.75C621.898 199.891 620.52 198.37 618.713 198.37C617.738 198.37 616.854 198.877 616.425 199.501V198.5H615.307V207.717ZM620.754 201.75C620.754 203.063 619.857 204.103 618.544 204.103C617.231 204.103 616.334 203.063 616.334 201.75C616.334 200.437 617.231 199.397 618.544 199.397C619.857 199.397 620.754 200.437 620.754 201.75ZM627.993 203.245C627.993 202.27 627.408 201.594 626.329 201.321L625.289 201.048C624.6 200.866 624.301 200.593 624.301 200.112C624.301 199.618 624.795 199.306 625.419 199.306C626.03 199.306 626.498 199.657 626.667 200.229H627.785C627.668 199.189 626.81 198.37 625.419 198.37C624.106 198.37 623.17 199.046 623.17 200.125C623.17 201.048 623.729 201.75 624.847 202.036L625.783 202.283C626.55 202.491 626.862 202.803 626.862 203.323C626.862 203.895 626.316 204.181 625.614 204.181C624.938 204.181 624.262 203.908 624.106 203.115H622.962C623.053 204.428 624.21 205.13 625.601 205.13C626.953 205.13 627.993 204.532 627.993 203.245Z" fill="#001E2B"/>
</svg>
