<svg xmlns="http://www.w3.org/2000/svg" xmlns:xlink="http://www.w3.org/1999/xlink" width="88" height="88" viewBox="0 0 88 88">
  <defs>
    <filter id="Ellipse_1237" x="0" y="0" width="88" height="88" filterUnits="userSpaceOnUse">
      <feOffset dy="5" input="SourceAlpha"/>
      <feGaussianBlur stdDeviation="5" result="blur"/>
      <feFlood flood-color="#ffff" flood-opacity="0.161"/>
      <feComposite operator="in" in2="blur"/>
      <feComposite in="SourceGraphic"/>
    </filter>
  </defs>
  <g id="L_D-Solutions" data-name="L&amp;D-Solutions" transform="translate(-1003 -1055)">
    <g transform="matrix(1, 0, 0, 1, 1003, 1055)" filter="url(#Ellipse_1237)">
      <circle id="Ellipse_1237-2" data-name="Ellipse 1237" cx="29" cy="29" r="29" transform="translate(15 10)" fill="#ffff" opacity="0.1"/>
    </g>
    <g id="g-chart-1" transform="translate(1031.574 1079)">


      <path style=" stroke:none;fill-rule:nonzero;fill:#ffff;fill-opacity:1;" d="M 28.285156 12.699219 C 28.285156 6.160156 23.011719 0.886719 16.5 0.886719 C 9.988281 0.886719 4.714844 6.160156 4.714844 12.667969 C 4.714844 12.667969 4.714844 12.667969 4.714844 12.699219 C 2.089844 12.847656 0 15.027344 0 17.675781 L 0 18.269531 C 0 21.039062 2.238281 23.277344 5.011719 23.277344 L 5.273438 23.277344 L 7.363281 26.605469 C 8.839844 28.964844 11.34375 30.347656 14.113281 30.347656 L 14.527344 30.347656 C 14.789062 31.351562 15.703125 32.113281 16.792969 32.113281 C 18.089844 32.113281 19.152344 31.054688 19.152344 29.761719 C 19.152344 28.460938 18.089844 27.402344 16.792969 27.402344 C 15.703125 27.402344 14.789062 28.167969 14.527344 29.167969 L 14.113281 29.167969 C 11.757812 29.167969 9.605469 27.960938 8.367188 25.957031 L 6.660156 23.277344 L 7.074219 23.277344 C 7.71875 23.277344 8.25 22.746094 8.25 22.097656 L 8.25 13.847656 C 8.25 13.199219 7.71875 12.667969 7.074219 12.667969 L 5.894531 12.667969 C 5.894531 6.804688 10.636719 2.0625 16.5 2.0625 C 22.363281 2.0625 27.105469 6.804688 27.105469 12.667969 L 25.925781 12.667969 C 25.28125 12.667969 24.75 13.199219 24.75 13.847656 L 24.75 22.097656 C 24.75 22.746094 25.28125 23.277344 25.925781 23.277344 L 27.988281 23.277344 C 30.761719 23.277344 33 21.039062 33 18.269531 L 33 17.675781 C 33 15.027344 30.910156 12.847656 28.285156 12.699219 Z M 16.792969 28.582031 C 17.441406 28.582031 17.972656 29.109375 17.972656 29.761719 C 17.972656 30.40625 17.441406 30.9375 16.792969 30.9375 C 16.148438 30.9375 15.613281 30.40625 15.613281 29.761719 C 15.613281 29.109375 16.148438 28.582031 16.792969 28.582031 Z M 7.074219 13.847656 L 7.074219 22.097656 L 5.011719 22.097656 C 2.886719 22.097656 1.175781 20.390625 1.175781 18.269531 L 1.175781 17.675781 C 1.175781 15.558594 2.886719 13.847656 5.011719 13.847656 Z M 31.824219 18.269531 C 31.824219 20.390625 30.113281 22.097656 27.988281 22.097656 L 25.925781 22.097656 L 25.925781 13.847656 L 27.988281 13.847656 C 30.113281 13.847656 31.824219 15.558594 31.824219 17.675781 Z M 31.824219 18.269531 "/>
<path style=" stroke:none;fill-rule:nonzero;fill:#ffff;fill-opacity:1;" d="M 21.394531 5.332031 C 21.332031 5.300781 21.242188 5.246094 21.15625 5.183594 C 21.066406 5.128906 20.976562 5.066406 20.917969 5.039062 C 20.652344 4.863281 20.273438 4.949219 20.125 5.246094 C 19.972656 5.535156 20.035156 5.863281 20.332031 6.042969 C 20.390625 6.070312 20.480469 6.128906 20.566406 6.1875 C 20.652344 6.246094 20.742188 6.304688 20.832031 6.332031 C 20.917969 6.394531 21.039062 6.421875 21.125 6.421875 C 21.332031 6.421875 21.511719 6.332031 21.628906 6.128906 C 21.773438 5.863281 21.683594 5.507812 21.394531 5.332031 Z M 21.394531 5.332031 "/>
<path style=" stroke:none;fill-rule:nonzero;fill:#ffff;fill-opacity:1;" d="M 16.5 3.832031 C 13.996094 3.832031 11.636719 4.921875 10.019531 6.804688 C 9.8125 7.042969 9.839844 7.425781 10.078125 7.632812 C 10.195312 7.71875 10.3125 7.777344 10.457031 7.777344 C 10.636719 7.777344 10.785156 7.71875 10.902344 7.570312 C 12.316406 5.953125 14.347656 5.011719 16.5 5.011719 C 17.03125 5.011719 17.558594 5.066406 18.089844 5.183594 C 18.417969 5.246094 18.707031 5.039062 18.796875 4.742188 C 18.886719 4.449219 18.652344 4.125 18.355469 4.035156 C 17.738281 3.890625 17.117188 3.832031 16.5 3.832031 Z M 16.5 3.832031 "/>
      
    </g>
  </g>
</svg>
